<svg xmlns:xlink="http://www.w3.org/1999/xlink" width="8.539ex" height="2.843ex" style="font-size: 15px; vertical-align: -0.838ex;" viewBox="0 -863.1 3676.6 1223.9" role="img" focusable="false" xmlns="http://www.w3.org/2000/svg">
<defs>
<path stroke-width="1" id="E1-MJMATHI-3C0" d="M132 -11Q98 -11 98 22V33L111 61Q186 219 220 334L228 358H196Q158 358 142 355T103 336Q92 329 81 318T62 297T53 285Q51 284 38 284Q19 284 19 294Q19 300 38 329T93 391T164 429Q171 431 389 431Q549 431 553 430Q573 423 573 402Q573 371 541 360Q535 358 472 358H408L405 341Q393 269 393 222Q393 170 402 129T421 65T431 37Q431 20 417 5T381 -10Q370 -10 363 -7T347 17T331 77Q330 86 330 121Q330 170 339 226T357 318T367 358H269L268 354Q268 351 249 275T206 114T175 17Q164 -11 132 -11Z"></path>
<path stroke-width="1" id="E1-MJMAIN-28" d="M94 250Q94 319 104 381T127 488T164 576T202 643T244 695T277 729T302 750H315H319Q333 750 333 741Q333 738 316 720T275 667T226 581T184 443T167 250T184 58T225 -81T274 -167T316 -220T333 -241Q333 -250 318 -250H315H302L274 -226Q180 -141 137 -14T94 250Z"></path>
<path stroke-width="1" id="E1-MJMATHBI-3C9" d="M532 367Q532 399 559 426T618 453Q645 453 668 430T691 357Q691 319 677 261T649 171Q640 149 626 125T586 68T521 14T438 -7Q401 -7 372 7T333 30T311 57Q246 -8 165 -8Q119 -8 82 19T30 102Q24 126 24 163V178Q24 210 37 255Q61 346 118 424Q141 451 161 451Q174 451 184 443T194 419Q194 402 179 387Q91 273 91 206Q91 159 122 138T189 117T281 145V173Q283 223 294 253Q304 276 323 289T364 303Q386 303 400 287T415 250Q415 219 385 157L378 144Q378 142 388 136T419 124T462 117Q522 117 566 165T610 255Q610 288 561 320Q532 337 532 367Z"></path>
<path stroke-width="1" id="E1-MJMAIN-2223" d="M139 -249H137Q125 -249 119 -235V251L120 737Q130 750 139 750Q152 750 159 735V-235Q151 -249 141 -249H139Z"></path>
<path stroke-width="1" id="E1-MJCAL-44" d="M37 475Q19 475 19 487Q19 536 103 604T327 682H356Q386 683 408 683H419Q475 683 506 681T582 668T667 633Q766 571 766 450Q766 365 723 287T611 152T455 57T279 6Q248 1 160 0Q148 0 131 0T108 -1Q72 -1 72 11Q72 24 90 40T133 64L144 68L152 88Q247 328 272 587Q275 613 272 613Q272 613 269 613Q225 610 195 602T149 579T129 556T119 532Q118 530 116 525T113 518Q102 502 80 490T37 475ZM665 407Q665 596 412 613Q403 614 383 614Q370 614 370 612Q370 598 363 542T323 357T242 103L228 69H265Q391 73 481 119Q536 148 575 188T633 268T658 338T665 392V407Z"></path>
<path stroke-width="1" id="E1-MJMAIN-29" d="M60 749L64 750Q69 750 74 750H86L114 726Q208 641 251 514T294 250Q294 182 284 119T261 12T224 -76T186 -143T145 -194T113 -227T90 -246Q87 -249 86 -250H74Q66 -250 63 -250T58 -247T55 -238Q56 -237 66 -225Q221 -64 221 250T66 725Q56 737 55 738Q55 746 60 749Z"></path>
</defs>
<g stroke="currentColor" fill="currentColor" stroke-width="0" transform="matrix(1 0 0 -1 0 0)">
 <use xlink:href="#E1-MJMATHI-3C0" x="0" y="0"></use>
 <use xlink:href="#E1-MJMAIN-28" x="573" y="0"></use>
 <use xlink:href="#E1-MJMATHBI-3C9" x="963" y="0"></use>
 <use xlink:href="#E1-MJMAIN-2223" x="1959" y="0"></use>
 <use xlink:href="#E1-MJCAL-44" x="2515" y="0"></use>
 <use xlink:href="#E1-MJMAIN-29" x="3287" y="0"></use>
</g>
</svg>